<?xml version="1.0" standalone="no"?>
<!DOCTYPE svg PUBLIC "-//W3C//DTD SVG 1.1//EN" "http://www.w3.org/Graphics/SVG/1.1/DTD/svg11.dtd" >
<svg xmlns="http://www.w3.org/2000/svg">
<metadata>Generated by IcoMoon</metadata>
<defs>
<font id="aranpani" horiz-adv-x="1024">
<font-face units-per-em="1024" ascent="960" descent="-64" />
<missing-glyph horiz-adv-x="1024" />
<glyph unicode="&#x20;" horiz-adv-x="512" d="" />
<glyph unicode="&#xe900;" glyph-name="accordion-expand" d="M213.333 56.32l390.827 391.68-390.827 391.68 120.32 120.32 512-512-512-512z" />
<glyph unicode="&#xe901;" glyph-name="accordion" d="M120.32 746.667l391.68-390.827 391.68 390.827 120.32-120.32-512-512-512 512z" />
<glyph unicode="&#xe902;" glyph-name="add-2" d="M512 960c-282.77 0-512-229.23-512-512s229.23-512 512-512c282.77 0 512 229.23 512 512v0c0 282.77-229.23 512-512 512v0zM768 396.8h-204.8v-204.8h-102.4v204.8h-204.8v102.4h204.8v204.8h102.4v-204.8h204.8z" />
<glyph unicode="&#xe903;" glyph-name="add-group-member" d="M341.12 522.88h-128v128h-85.12v-128h-128v-85.76h128v-128h85.12v128h128zM768 480c70.692 0 128 57.308 128 128s-57.308 128-128 128v0c-0.314 0.003-0.684 0.005-1.055 0.005-13.607 0-26.666-2.346-38.795-6.656l0.81 0.251c24.319-33.888 38.889-76.203 38.889-121.92s-14.57-88.031-39.32-122.553l0.431 0.633c11.647-3.655 25.040-5.76 38.925-5.76 0.041 0 0.081 0 0.122 0h-0.006zM554.88 480c70.692 0 128 57.308 128 128s-57.308 128-128 128c-70.692 0-128-57.308-128-128v0c0-70.692 57.308-128 128-128v0zM837.12 387.84c35.368-28.882 58.012-72.192 58.878-120.815l0.002-0.145v-85.76h128v85.76c0 65.28-101.12 105.6-186.88 120.96zM554.88 394.88c-85.76 0-256-42.88-256-128v-85.76h512v85.76c0 85.12-170.88 128-256 128z" />
<glyph unicode="&#xe904;" glyph-name="add" d="M1024 374.857h-438.857v-438.857h-146.286v438.857h-438.857v146.286h438.857v438.857h146.286v-438.857h438.857z" />
<glyph unicode="&#xe905;" glyph-name="back" d="M1024 504.889h-806.116l203.662 204.231-80.213 80.213-341.333-341.333 341.333-341.333 80.213 80.213-203.662 204.231h806.116z" />
<glyph unicode="&#xe906;" glyph-name="change-password" d="M518.4 176c0.189-0.001 0.414-0.002 0.638-0.002 54.080 0 97.92 43.84 97.92 97.92s-43.84 97.92-97.92 97.92c-54.080 0-97.92-43.84-97.92-97.92 0-0.224 0.001-0.448 0.002-0.672v0.034c0-53.726 43.554-97.28 97.28-97.28v0zM810.88 615.040h-49.28v97.28c0.019 1.142 0.030 2.49 0.030 3.84 0 134.686-109.184 243.87-243.87 243.87-133.336 0-241.679-107.006-243.837-239.828l-0.003-0.203v-7.68h92.8c5.325 79.424 71.054 141.833 151.36 141.833s146.035-62.408 151.335-141.371l0.025-0.462v-97.28h-444.16c-53.804-0.363-97.28-44.063-97.28-97.918 0-0.001 0-0.001 0-0.002v0-487.68c0-53.726 43.554-97.28 97.28-97.28v0h585.6c53.726 0 97.28 43.554 97.28 97.28v0 487.68c0 0.001 0 0.001 0 0.002 0 53.855-43.476 97.555-97.245 97.918h-0.035zM810.88 29.44h-585.6v487.68h585.6z" />
<glyph unicode="&#xe907;" glyph-name="close" d="M1024 861.44l-98.56 98.56-413.44-413.44-413.44 413.44-98.56-98.56 413.44-413.44-413.44-413.44 98.56-98.56 413.44 413.44 413.44-413.44 98.56 98.56-413.44 413.44z" />
<glyph unicode="&#xe908;" glyph-name="contact" d="M504.32 960c-231.4 0-418.987-187.587-418.987-418.987v0-325.547c0 0 0 0 0-0.001 0-77.14 62.413-139.703 139.497-139.946h139.97v372.48h-186.453v93.013c-0.136 3.516-0.213 7.645-0.213 11.791 0 180.030 145.943 325.973 325.973 325.973s325.973-145.943 325.973-325.973c0-4.147-0.077-8.275-0.231-12.384l0.018 0.593v-93.013h-186.027v-372.48h186.027v-46.507h-325.547v-93.013h279.040c77.044 0.24 139.464 62.51 139.946 139.474v465.539c0 231.4-187.587 418.987-418.987 418.987v0z" />
<glyph unicode="&#xe909;" glyph-name="dashboar" d="M0 391.040h455.040v568.96h-455.040zM0-64h455.040v341.12h-455.040zM568.96-64h455.040v568.96h-455.040zM568.96 960v-341.12h455.040v341.12z" />
<glyph unicode="&#xe90a;" glyph-name="date" d="M343.771 499.2h-102.4v-102.4h102.4zM548.571 499.2h-102.4v-102.4h102.4zM753.371 499.2h-102.4v-102.4h102.4zM855.771 857.6h-51.2v102.4h-102.4v-102.4h-409.6v102.4h-102.4v-102.4h-51.2c-0.217 0.002-0.474 0.003-0.731 0.003-56.15 0-101.669-45.519-101.669-101.669 0-0.001 0-0.002 0-0.003v0-716.8c-0.002-0.217-0.003-0.474-0.003-0.731 0-56.554 45.846-102.4 102.4-102.4 0.001 0 0.002 0 0.003 0h716.8c56.554 0 102.4 45.846 102.4 102.4v0 716.8c0 56.554-45.846 102.4-102.4 102.4v0zM855.771 38.4h-716.8v563.2h716.8z" />
<glyph unicode="&#xe90b;" glyph-name="delete-forever" d="M159.232 49.664c0.289-62.658 51.006-113.375 113.636-113.664h455.196c62.775 0 113.664 50.889 113.664 113.664v0 683.008h-682.496zM299.008 454.656l80.384 80.384 121.344-120.832 120.32 120.832 80.384-80.384-120.832-120.32 120.832-120.832-80.384-79.872-120.32 120.32-120.832-120.32-79.872 79.872 120.32 120.832zM699.904 903.168l-56.832 56.832h-284.672l-56.832-56.832h-199.168v-113.664h796.672v113.664z" />
<glyph unicode="&#xe90c;" glyph-name="delete" d="M166.766 50.103c-0.002-0.217-0.002-0.474-0.002-0.731 0-62.613 50.758-113.371 113.371-113.371 0.001 0 0.002 0 0.002 0h455.68c62.702 0.415 113.371 51.34 113.371 114.101 0 0.001 0 0.002 0 0.003v0 682.423h-682.423zM906.24 902.949h-198.949l-57.051 57.051h-284.526l-57.051-57.051h-198.949v-113.371h796.526z" />
<glyph unicode="&#xe90d;" glyph-name="donor" d="M378.24 732.8c-22.268 0-40.32-18.052-40.32-40.32v0c-0.060-7.73-6.341-13.974-14.080-13.974-1.368 0-2.69 0.195-3.94 0.559l0.099-0.025c-6.466 1.225-11.32 6.737-11.52 13.419v0.021c0 22.268-18.052 40.32-40.32 40.32v0 0c-6.882 0.642-12.226 6.39-12.226 13.385 0 0.47 0.024 0.935 0.071 1.392l-0.005-0.057c1.182 6.618 6.655 11.654 13.391 12.157l0.049 0.003c0.002 0 0.003 0 0.005 0 22.043 0 39.955 17.689 40.314 39.646v0.034c0 7.423 6.017 13.44 13.44 13.44s13.44-6.017 13.44-13.44v0c0-21.915 17.765-39.68 39.68-39.68v0c6.916-0.968 12.181-6.845 12.181-13.951 0-0.27-0.008-0.539-0.023-0.806l0.002 0.037c-0.608-6.456-5.704-11.552-12.106-12.156l-0.054-0.004zM314.24 354.56c-21.991 0.36-39.68 18.272-39.68 40.315 0 0.002 0 0.004 0 0.005v0c-0.074 8.073-6.636 14.59-14.719 14.59-1.366 0-2.689-0.186-3.944-0.534l0.103 0.024c-0.384 0.041-0.829 0.064-1.28 0.064-7.069 0-12.8-5.731-12.8-12.8 0-0.023 0-0.045 0-0.068v0.003c0-22.268-18.052-40.32-40.32-40.32v0c-5.774-1.593-9.944-6.798-9.944-12.977 0-1.072 0.125-2.114 0.363-3.114l-0.018 0.091c0.608-6.456 5.704-11.552 12.106-12.156l0.054-0.004c22.268 0 40.32-18.052 40.32-40.32v0c-0.012-0.209-0.018-0.453-0.018-0.699 0-6.978 5.319-12.715 12.123-13.376l0.055-0.004c0.208-0.011 0.452-0.017 0.697-0.017 7.332 0 13.354 5.604 14.019 12.762l0.004 0.056c0 0.002 0 0.003 0 0.005 0 22.043 17.689 39.955 39.646 40.314h0.034c7.423 0 13.44 6.017 13.44 13.44s-6.017 13.44-13.44 13.44v0zM868.48 546.56c-22.268 0-40.32 18.052-40.32 40.32v0c-0.939 6.586-6.541 11.594-13.313 11.594-0.496 0-0.985-0.027-1.467-0.079l0.060 0.005c-6.266-0.554-11.266-5.335-12.151-11.448l-0.009-0.072c0-22.268-18.052-40.32-40.32-40.32v0c-6.916-0.968-12.181-6.845-12.181-13.951 0-0.27 0.008-0.539 0.023-0.806l-0.002 0.037c0.608-6.456 5.704-11.552 12.106-12.156l0.054-0.004c22.268 0 40.32-18.052 40.32-40.32v0c0-7.423 6.017-13.44 13.44-13.44s13.44 6.017 13.44 13.44v0c0 22.268 18.052 40.32 40.32 40.32v0c7.423 0 13.44 6.017 13.44 13.44s-6.017 13.44-13.44 13.44v0zM512 640c-80.236 0-145.28-65.044-145.28-145.28s65.044-145.28 145.28-145.28c80.236 0 145.28 65.044 145.28 145.28v0c0.001 0.19 0.001 0.416 0.001 0.641 0 79.882-64.758 144.64-144.64 144.64-0.226 0-0.451-0.001-0.676-0.002h0.035zM1024 448c0-282.77-229.23-512-512-512s-512 229.23-512 512c0 282.77 229.23 512 512 512v0c282.77 0 512-229.23 512-512v0zM975.36 448c-1.444 254.811-208.341 460.816-463.353 460.816-255.907 0-463.36-207.453-463.36-463.36 0-157.554 78.635-296.742 198.8-380.458l1.513-0.998c-8.96 10.24-17.28 20.48-25.6 32 3.84 52.48 64 85.76 112 104.96 52.708 22.153 113.971 35.025 178.24 35.025s125.532-12.871 181.352-36.177l-3.112 1.152c48.64-19.2 107.52-52.48 112-104.96-6.4-8.96-13.44-17.28-20.48-25.6 116.505 85.014 191.482 220.897 192 374.317v0.083z" />
<glyph unicode="&#xe90e;" glyph-name="down" d="M0 704l512-512 512 512z" />
<glyph unicode="&#xe90f;" glyph-name="edit" d="M0 148.48v-212.48h212.48l605.867 605.867-212.48 212.48zM1006.933 728.747c10.156 10.313 16.427 24.478 16.427 40.107s-6.271 29.793-16.434 40.114l0.007-0.007-133.12 133.973c-10.081 10.315-24.134 16.71-39.68 16.71s-29.599-6.396-39.67-16.7l-111.797-111.797 212.48-212.48z" />
<glyph unicode="&#xe910;" glyph-name="father" d="M742.4 448c70.692 0 128 57.308 128 128s-57.308 128-128 128c-70.692 0-128-57.308-128-128v0c0-70.692 57.308-128 128-128v0zM358.4 499.2c84.831 0 153.6 68.769 153.6 153.6s-68.769 153.6-153.6 153.6c-84.831 0-153.6-68.769-153.6-153.6v0c0-84.831 68.769-153.6 153.6-153.6v0zM742.4 345.6c-93.696 0-281.6-47.104-281.6-140.8v-115.2h563.2v115.2c0 93.696-187.904 140.8-281.6 140.8zM358.4 396.8c-119.296 0-358.4-59.904-358.4-179.2v-128h358.4v115.2c3.012 79.424 51.501 146.826 120.055 177.155l1.289 0.509c-36.051 8.157-77.805 13.327-120.591 14.322l-0.753 0.014z" />
<glyph unicode="&#xe911;" glyph-name="filter" d="M270.966 570.88l-74.043 74.043 315.077 315.077 315.077-315.077-74.043-74.043-241.034 240.246zM512 84.874l-241.034 236.308-74.043-70.105 315.077-315.077 315.077 315.077-74.043 74.043z" />
<glyph unicode="&#xe912;" glyph-name="go" d="M341.577 960v-136.777h449.829l-791.406-790.674 96.549-96.549 790.674 791.406v-449.829h136.777v682.423z" />
<glyph unicode="&#xe913;" glyph-name="info" d="M460.8 192h102.4v307.2h-102.4zM512 960c-282.77 0-512-229.23-512-512s229.23-512 512-512c282.77 0 512 229.23 512 512v0c0 282.77-229.23 512-512 512v0zM512 38.4c-226.216 0-409.6 183.384-409.6 409.6s183.384 409.6 409.6 409.6c226.216 0 409.6-183.384 409.6-409.6v0c0-226.216-183.384-409.6-409.6-409.6v0zM460.8 601.6h102.4v102.4h-102.4z" />
<glyph unicode="&#xe914;" glyph-name="internal-users" d="M698.24 488.96c77.055 0 139.52 62.465 139.52 139.52s-62.465 139.52-139.52 139.52c-77.055 0-139.52-62.465-139.52-139.52v0c0-77.055 62.465-139.52 139.52-139.52v0zM325.76 488.96c77.055 0 139.52 62.465 139.52 139.52s-62.465 139.52-139.52 139.52c-77.055 0-139.52-62.465-139.52-139.52v0c-0.001-0.191-0.001-0.416-0.001-0.641 0-76.701 62.179-138.88 138.88-138.88 0.226 0 0.451 0.001 0.676 0.002h-0.035zM325.76 395.52c-108.8 0-325.76-54.4-325.76-162.56v-116.48h651.52v116.48c0 108.16-216.96 162.56-325.76 162.56zM698.24 395.52c-6.696 0.422-14.52 0.663-22.4 0.663s-15.704-0.241-23.466-0.715l1.066 0.052c54.281-33.725 90.204-92.527 91.517-159.81l0.003-0.19v-116.48h279.040v113.92c0 108.16-216.96 162.56-325.76 162.56z" />
<glyph unicode="&#xe915;" glyph-name="language" d="M512 960c-282.77 0-512-229.23-512-512s229.23-512 512-512c282.77 0 512 229.23 512 512v0c0 282.77-229.23 512-512 512v0zM866.56 652.8h-151.040c-18.040 68.225-42.105 127.805-72.514 183.421l2.114-4.221c94.323-32.684 171.102-95.785 220.405-177.356l1.035-1.844zM512 855.68c41.105-58.181 74.485-125.563 96.601-197.866l1.319-5.014h-195.84c23.435 77.317 56.815 144.699 99.415 205.115l-1.495-2.235zM115.84 343.68c-8.535 30.715-13.441 65.985-13.441 102.4s4.905 71.685 14.092 105.185l-0.651-2.785h172.8c-4.482-30.764-7.041-66.283-7.041-102.4s2.559-71.636 7.506-106.385l-0.465 3.985zM157.44 241.28h151.040c17.759-69.363 41.859-130.054 72.517-186.675l-2.117 4.275c-95.185 33.577-172.232 98.598-220.39 182.34l-1.050 1.98zM308.48 652.8h-151.040c50.040 83.675 126.93 146.881 218.572 178.344l2.868 0.856c-28.295-51.395-52.36-110.975-69.112-173.546l-1.288-5.654zM512 40.32c-40.817 58.229-74.166 125.573-96.548 197.743l-1.372 5.137h195.84c-23.754-77.307-57.103-144.651-99.472-205.222l1.552 2.342zM631.68 345.6h-239.36c-5.084 30.638-8.101 66.080-8.319 102.185l-0.001 0.215c0.219 36.322 3.236 71.763 8.847 106.334l-0.527-3.934h239.36c5.084-30.638 8.101-66.080 8.319-102.185l0.001-0.215c-0.219-36.322-3.236-71.763-8.847-106.334l0.527 3.934zM644.48 60.8c28.541 52.346 52.641 113.037 69.163 176.78l1.237 5.62h151.040c-49.873-84.657-126.731-148.873-218.555-181.506l-2.885-0.894zM735.36 345.6c4.384 30.681 6.939 66.194 7.040 102.285v0.115c-0.101 36.206-2.656 71.719-7.508 106.497l0.468-4.097h172.8c8.535-30.715 13.441-65.985 13.441-102.4s-4.905-71.685-14.092-105.185l0.651 2.785z" />
<glyph unicode="&#xe916;" d="M1024 448c0-282.77-229.23-512-512-512s-512 229.23-512 512c0 282.77 229.23 512 512 512s512-229.23 512-512z" />
<glyph unicode="&#xe917;" d="M581.12 330.496l-117.248 117.504 117.248 117.504-35.84 36.096-153.6-153.6 153.6-153.6z" />
<glyph unicode="&#xe918;" glyph-name="location" d="M518.4 960c-197.939 0-358.4-160.461-358.4-358.4v0 0c0-268.8 358.4-665.6 358.4-665.6s358.4 396.8 358.4 665.6c0 197.939-160.461 358.4-358.4 358.4v0zM518.4 473.6c-70.692 0-128 57.308-128 128s57.308 128 128 128c70.692 0 128-57.308 128-128v0c0-70.692-57.308-128-128-128v0z" />
<glyph unicode="&#xe919;" glyph-name="logout" d="M686.682 255.247v-100.593c-0.336-78.588-64.121-142.167-142.756-142.167-0.636 0-1.271 0.004-1.905 0.012l0.096-0.001h-399.36c0 0-0.001 0-0.001 0-78.631 0-142.414 63.572-142.756 142.123v602.386c0 78.843 63.915 142.758 142.758 142.758v0h381.289c0.164 0.001 0.358 0.001 0.553 0.001 80.698 0 147.769-58.341 161.336-135.146l0.144-0.986c0.158-0.996 0.248-2.144 0.248-3.313s-0.090-2.317-0.264-3.438l0.016 0.125v-98.184c0.192-1.51 0.301-3.258 0.301-5.031 0-23.287-18.878-42.165-42.165-42.165s-42.165 18.878-42.165 42.165c0 1.773 0.109 3.52 0.322 5.236l-0.021-0.205v94.569c-7.983 34.73-38.63 60.238-75.234 60.238-0.233 0-0.465-0.001-0.698-0.003h-383.663c-33.267 0-60.235-26.968-60.235-60.235v0-602.353c0-33.267 26.968-60.235 60.235-60.235v0h399.36c33.267 0 60.235 26.968 60.235 60.235v0 104.207c0 23.287 18.878 42.165 42.165 42.165s42.165-18.878 42.165-42.165v0zM1036.047 485.948l-201.186 200.584c-7.587 7.966-18.274 12.92-30.118 12.92s-22.531-4.954-30.102-12.903l-0.016-0.017c-7.666-7.727-12.403-18.369-12.403-30.118s4.737-22.391 12.406-30.12l-0.003 0.003 128.904-128.301h-580.066c-23.287 0-42.165-18.878-42.165-42.165s18.878-42.165 42.165-42.165h580.066l-128.904-128.904c-7.666-7.727-12.403-18.369-12.403-30.118s4.737-22.391 12.406-30.12l-0.003 0.003c7.864-7.383 18.448-11.95 30.098-12.047h0.019c0.002 0 0.004 0 0.006 0 11.492 0 21.911 4.598 29.516 12.054l201.781 201.781c7.489 7.695 12.108 18.216 12.108 29.816s-4.618 22.122-12.117 29.826l0.009-0.010z" />
<glyph unicode="&#xe91a;" glyph-name="mail" d="M921.6 864h-819.2c-56.554 0-102.4-45.846-102.4-102.4v0-614.4c0-56.554 45.846-102.4 102.4-102.4v0h819.2c56.554 0 102.4 45.846 102.4 102.4v0 614.4c0 56.554-45.846 102.4-102.4 102.4v0zM921.6 659.2l-409.6-256-409.6 256v102.4l409.6-256 409.6 256z" />
<glyph unicode="&#xe91b;" glyph-name="more" d="M512 723.692c65.255 0 118.154 52.899 118.154 118.154s-52.899 118.154-118.154 118.154c-65.255 0-118.154-52.899-118.154-118.154v0c0-65.255 52.899-118.154 118.154-118.154v0zM512 566.154c-65.255 0-118.154-52.899-118.154-118.154s52.899-118.154 118.154-118.154c65.255 0 118.154 52.899 118.154 118.154v0c0 65.255-52.899 118.154-118.154 118.154v0zM512 172.308c-65.255 0-118.154-52.899-118.154-118.154s52.899-118.154 118.154-118.154c65.255 0 118.154 52.899 118.154 118.154v0c0 65.255-52.899 118.154-118.154 118.154v0z" />
<glyph unicode="&#xe91c;" glyph-name="my-account" d="M512 960l-418.909-186.182v-279.273c0-258.327 178.735-499.898 418.909-558.545 240.175 58.647 418.909 300.218 418.909 558.545v279.273zM512 448h325.818c-24.669-191.767-152.669-362.589-325.818-416.116v416.116h-325.818v265.309l325.818 144.756z" />
<glyph unicode="&#xe91d;" glyph-name="notificaiton" d="M505.742-64c57.751 0.64 104.358 47.447 104.675 105.214v0.030h-209.92c-0.001-0.169-0.002-0.369-0.002-0.569 0-57.811 46.865-104.676 104.676-104.676 0.001 0 0.001 0 0.002 0v0zM820.338 251.164v260.551c0 160.996-85.902 295.822-236.089 331.662v35.84c0.284 2.516 0.446 5.433 0.446 8.387 0 43.672-35.403 79.076-79.076 79.076s-79.076-35.403-79.076-79.076c0-1.55 0.045-3.089 0.133-4.617l-0.010 0.211v-39.822c-150.756-35.84-236.089-170.667-236.089-331.662v-262.827l-105.244-105.244v-52.338h840.249v52.338z" />
<glyph unicode="&#xe91e;" glyph-name="paid" d="M512 960c-282.77 0-512-229.23-512-512s229.23-512 512-512c282.77 0 512 229.23 512 512v0c0 282.77-229.23 512-512 512v0zM396.16 204.16l-204.16 203.52 51.2 51.2 152.96-152.32 384 384 51.84-50.56z" />
<glyph unicode="&#xe91f;" glyph-name="password" d="M810.88 615.040h-49.28v97.28c0.019 1.142 0.030 2.49 0.030 3.84 0 134.686-109.184 243.87-243.87 243.87-133.336 0-241.679-107.006-243.837-239.828l-0.003-0.203v-104.96h-48.64c-53.804-0.363-97.28-44.063-97.28-97.918 0-0.001 0-0.001 0-0.002v0-487.68c0-53.726 43.554-97.28 97.28-97.28v0h585.6c53.726 0 97.28 43.554 97.28 97.28v0 487.68c0 0.001 0 0.001 0 0.002 0 53.855-43.476 97.555-97.245 97.918h-0.035zM518.4 176c-0.189-0.001-0.414-0.002-0.638-0.002-54.080 0-97.92 43.84-97.92 97.92s43.84 97.92 97.92 97.92c54.080 0 97.92-43.84 97.92-97.92 0-0.224-0.001-0.448-0.002-0.672v0.034c0-53.726-43.554-97.28-97.28-97.28v0zM669.44 615.040h-302.72v97.28c5.325 79.424 71.054 141.833 151.36 141.833s146.035-62.408 151.335-141.371l0.025-0.462z" />
<glyph unicode="&#xe920;" glyph-name="payment" d="M921.6 864h-819.2c-0.19 0.001-0.415 0.002-0.64 0.002-56.2 0-101.76-45.56-101.76-101.76 0-0.001 0-0.001 0-0.002v0-614.4c0-56.554 45.846-102.4 102.4-102.4v0h819.2c0.001 0 0.001 0 0.002 0 56.329 0 102.035 45.482 102.398 101.725v614.435c0 56.554-45.846 102.4-102.4 102.4v0zM921.6 147.2h-819.2v307.2h819.2zM921.6 659.2h-819.2v102.4h819.2z" />
<glyph unicode="&#xe921;" glyph-name="pdf" d="M896 960h-768c-70.692 0-128-57.308-128-128v0-768c0-70.692 57.308-128 128-128v0h768c70.692 0 128 57.308 128 128v0 768c0 70.692-57.308 128-128 128v0zM352 480c0-53.019-42.981-96-96-96v0h-64v-128h-96v384h160c53.019 0 96-42.981 96-96v0zM672 352c0-53.019-42.981-96-96-96v0h-160v384h160c53.019 0 96-42.981 96-96v0zM928 544h-96v-64h96v-96h-96v-128h-96v384h192zM192 480h64v64h-64zM512 352h64v192h-64z" />
<glyph unicode="&#xe922;" glyph-name="pending" d="M512 960c-282.77 0-512-229.23-512-512s229.23-512 512-512c282.77 0 512 229.23 512 512v0c0 282.77-229.23 512-512 512v0zM563.2 192h-102.4v102.4h102.4zM563.2 396.8h-102.4v307.2h102.4z" />
<glyph unicode="&#xe923;" glyph-name="phone" d="M206.080 517.12c84.155-162.018 213.022-290.885 370.259-372.774l4.781-2.266 122.88 124.8c10.419 10.394 24.799 16.822 40.68 16.822 6.274 0 12.313-1.003 17.967-2.857l-0.407 0.116c60.218-20.693 129.604-32.641 201.78-32.641 0.387 0 0.774 0 1.161 0.001h-0.061c0.573 0.021 1.247 0.032 1.923 0.032 31.245 0 56.613-25.157 56.956-56.32v-198.432c0-31.458-25.502-56.96-56.96-56.96v0c-533.857 0-966.676 432.594-967.040 966.365v0.035c0 31.458 25.502 56.96 56.96 56.96v0h199.040c31.458 0 56.96-25.502 56.96-56.96v0c-0.001-0.327-0.001-0.714-0.001-1.1 0-72.176 11.948-141.562 33.973-206.287l-1.332 4.508c2.043-5.661 3.224-12.193 3.224-19.001 0-16.12-6.622-30.694-17.295-41.149l-0.010-0.010z" />
<glyph unicode="&#xe924;" glyph-name="photo" d="M675.84 384c0-90.486-73.354-163.84-163.84-163.84s-163.84 73.354-163.84 163.84c0 90.486 73.354 163.84 163.84 163.84v0c90.486 0 163.84-73.354 163.84-163.84v0zM1024 691.2v-614.4c0-56.554-45.846-102.4-102.4-102.4h-819.2c-56.554 0-102.4 45.846-102.4 102.4v0 614.4c0 56.554 45.846 102.4 102.4 102.4v0h162.56l93.44 102.4h307.2l93.44-102.4h162.56c56.554 0 102.4-45.846 102.4-102.4v0zM768 384c0 141.385-114.615 256-256 256s-256-114.615-256-256c0-141.385 114.615-256 256-256v0c141.385 0 256 114.615 256 256v0z" />
<glyph unicode="&#xe925;" glyph-name="pin" d="M563.2 704h-102.4v-204.8h-204.8v-102.4h204.8v-204.8h102.4v204.8h204.8v102.4h-204.8zM512 960c-282.77 0-512-229.23-512-512s229.23-512 512-512c282.77 0 512 229.23 512 512v0c0 282.77-229.23 512-512 512v0zM512 38.4c-226.216 0-409.6 183.384-409.6 409.6s183.384 409.6 409.6 409.6c226.216 0 409.6-183.384 409.6-409.6v0c-0.364-226.069-183.531-409.236-409.565-409.6h-0.035z" />
<glyph unicode="&#xe926;" glyph-name="proceed" d="M0 512h779.093l-357.547 357.547 90.453 90.453 512-512-512-512-90.453 90.453 357.547 357.547h-779.093z" />
<glyph unicode="&#xe927;" glyph-name="profile-placeholder" d="M512 838.4c74.227 0 134.4-60.173 134.4-134.4s-60.173-134.4-134.4-134.4c-74.227 0-134.4 60.173-134.4 134.4v0c0 74.227 60.173 134.4 134.4 134.4v0 0zM512 262.4c192 0 390.4-93.44 390.4-134.4v-70.4h-780.8v70.4c0 40.96 200.32 134.4 390.4 134.4zM512 960c-141.385 0-256-114.615-256-256s114.615-256 256-256c141.385 0 256 114.615 256 256v0c0 141.385-114.615 256-256 256v0zM512 384c-170.88 0-512-85.76-512-256v-192h1024v192c0 170.24-341.12 256-512 256z" />
<glyph unicode="&#xe928;" glyph-name="profile" d="M512 448c141.385 0 256 114.615 256 256s-114.615 256-256 256c-141.385 0-256-114.615-256-256v0c0-0.169-0.001-0.369-0.001-0.57 0-141.071 114.36-255.431 255.431-255.431 0.2 0 0.4 0 0.6 0.001h-0.031zM512 320c-170.667 0-512-85.333-512-256v-128h1024v128c0 170.667-341.333 256-512 256z" />
<glyph unicode="&#xe929;" glyph-name="project" d="M935.253-64c-1.319 3.192-2.495 6.999-3.334 10.931l-0.080 0.447q-36.978 183.182-72.818 366.933c-28.444 140.516-56.889 281.6-83.627 422.116-16.254 56.852-25.601 122.148-25.601 189.627 0 0.334 0 0.669 0.001 1.003v-0.052c0.157 1.111 0.246 2.394 0.246 3.698s-0.090 2.587-0.263 3.843l0.016-0.146c-18.773-19.911-37.547-36.409-52.907-56.889s-34.133-14.791-52.907-13.653c0 7.396 0 13.653 0 20.48 10.24 18.773 14.791 30.151 5.12 44.373s-16.498 20.48-25.031 31.289c-9.185-9.816-17.953-20.388-26.068-31.468l-0.67-0.959c-3.585-4.080-5.772-9.465-5.772-15.36s2.187-11.28 5.794-15.386l-0.023 0.026c5.479-5.794 8.848-13.634 8.848-22.261 0-3.426-0.531-6.727-1.516-9.827l0.063 0.23h-76.8c-1.344 3.224-2.125 6.97-2.125 10.898 0 8.235 3.431 15.669 8.941 20.949l0.010 0.010c3.625 4.166 5.834 9.647 5.834 15.644s-2.209 11.478-5.859 15.673l0.025-0.029c-7.396 10.809-16.498 21.049-25.6 31.858-5.025-8.205-10.090-15.262-15.611-21.929l0.251 0.312c-19.342-21.618-19.342-33.564 0-53.476 0-6.827 0-13.653 0-19.911h-80.782c-0.919 2.866-1.448 6.162-1.448 9.583 0 8.912 3.595 16.984 9.415 22.846l-0.002-0.002c3.421 4.245 5.491 9.703 5.491 15.644s-2.070 11.4-5.529 15.693l0.038-0.048c-7.964 10.24-17.067 20.48-25.6 31.289-8.533-11.378-17.636-21.618-25.6-32.427-3.585-4.080-5.772-9.465-5.772-15.36s2.187-11.28 5.794-15.386l-0.023 0.026c5.441-5.705 8.789-13.447 8.789-21.971 0-3.325-0.509-6.53-1.454-9.543l0.061 0.226c-31.858-5.12-34.702-3.982-56.889 17.067l-50.631 51.769v-56.889c0.279-3.152 0.437-6.82 0.437-10.524s-0.159-7.372-0.47-10.996l0.033 0.472c-18.773-89.884-35.84-180.907-54.044-266.809l-121.173-612.124c0-12.516-5.689-25.6-9.102-42.098h849.92zM546.133-0.284h-72.249v92.729h72.249zM546.133 227.271h-72.249v93.867h72.249zM546.133 454.827h-72.249v95.004h72.249zM546.133 682.382h-72.249v96.142h72.249z" />
<glyph unicode="&#xe92a;" glyph-name="promote-to-ind-donor" d="M64 960v-146.56h877.44v146.56zM247.040 448h182.4v-512h146.56v512h183.040l-256 256z" />
<glyph unicode="&#xe92b;" glyph-name="recipt" d="M804.571 192h-614.4v102.4h614.4zM804.571 396.8h-614.4v102.4h614.4zM804.571 601.6h-614.4v102.4h614.4zM36.571-64l76.8 73.143 76.8-73.143 73.143 76.8 80.457-76.8 73.143 76.8 80.457-76.8 73.143 76.8 80.457-76.8 73.143 76.8 80.457-76.8 76.8 73.143 73.143-76.8v1027.657l-73.143-76.8-76.8 76.8-76.8-76.8-73.143 73.143-80.457-73.143-73.143 73.143-73.143-76.8-73.143 73.143-87.771-69.486-73.143 73.143-73.143-76.8-84.114 80.457z" />
<glyph unicode="&#xe92c;" glyph-name="reg-no-info" d="M512 960c-282.77 0-512-229.23-512-512s229.23-512 512-512c282.77 0 512 229.23 512 512v0c0 282.77-229.23 512-512 512v0zM563.2 192h-102.4v307.2h102.4zM563.2 601.6h-102.4v102.4h102.4z" />
<glyph unicode="&#xe92d;" d="M1024 448c0-282.77-229.23-512-512-512s-512 229.23-512 512c0 282.77 229.23 512 512 512s512-229.23 512-512z" />
<glyph unicode="&#xe92e;" d="M644.48 652.8l-132.48-132.48-132.48 132.48-72.32-72.32 132.48-132.48-132.48-132.48 72.32-72.32 132.48 132.48 132.48-132.48 72.32 72.32-132.48 132.48 132.48 132.48z" />
<glyph unicode="&#xe92f;" glyph-name="remove-pin" d="M256 499.2v-102.4h512v102.4zM512 960c-282.77 0-512-229.23-512-512s229.23-512 512-512c282.77 0 512 229.23 512 512v0c0 282.77-229.23 512-512 512v0zM512 38.4c-226.216 0-409.6 183.384-409.6 409.6s183.384 409.6 409.6 409.6c226.216 0 409.6-183.384 409.6-409.6v0c-0.364-226.069-183.531-409.236-409.565-409.6h-0.035z" />
<glyph unicode="&#xe930;" glyph-name="rep" horiz-adv-x="1021" d="M539.823 147.708c0.389-66.073 24.516-126.437 64.273-173.069l-0.313 0.377h-603.783v122.803c0 164.377 328.755 246.246 492.492 246.246 43.020-0.107 85.044-4.059 125.837-11.529l-4.313 0.656c-45.922-47.927-74.194-113.084-74.194-184.844 0-0.225 0-0.45 0.001-0.675v0.035zM492.492 467.508c135.998 0 246.246 110.248 246.246 246.246s-110.248 246.246-246.246 246.246c-135.998 0-246.246-110.248-246.246-246.246v0c0-135.998 110.248-246.246 246.246-246.246v0zM1021.442 147.708c0.002-0.364 0.004-0.794 0.004-1.225 0-43.483-13.392-83.838-36.278-117.165l0.456 0.703c-38.522-55.989-102.245-92.227-174.432-92.227-116.57 0-211.068 94.498-211.068 211.068 0 70.41 34.477 132.768 87.47 171.113l0.617 0.425c34.441 25.589 77.798 40.963 124.747 40.963 116.216 0 210.428-94.212 210.428-210.428 0-1.135-0.009-2.267-0.027-3.398l0.002 0.171zM920.385 227.658c-3.742 3.849-8.932 6.275-14.688 6.396h-0.022c-1.153 0.274-2.477 0.432-3.838 0.432s-2.685-0.157-3.954-0.455l0.117 0.023c-2.784-0.919-5.151-2.461-7.027-4.468l-0.009-0.010-115.128-115.128-44.772 44.132c-3.726 3.848-8.939 6.237-14.711 6.237s-10.985-2.389-14.705-6.231l-0.005-0.006c-3.345-3.719-5.39-8.665-5.39-14.089 0-6.37 2.822-12.080 7.283-15.95l0.026-0.022 58.843-59.483c3.83-3.883 9.149-6.289 15.031-6.289s11.201 2.405 15.028 6.286l127.922 127.922c3.169 3.386 5.271 7.807 5.749 12.703l0.007 0.089c0.032 0.433 0.050 0.937 0.050 1.446 0 5.958-2.469 11.34-6.44 15.178l-0.006 0.006z" />
<glyph unicode="&#xe931;" d="M1024 448c0-282.77-229.23-512-512-512s-512 229.23-512 512c0 282.77 229.23 512 512 512s512-229.23 512-512z" />
<glyph unicode="&#xe932;" d="M417.024 330.496l117.248 117.504-117.248 117.504 36.096 36.096 153.6-153.6-153.6-153.6z" />
<glyph unicode="&#xe933;" glyph-name="search" d="M730.385 315.8h-44.553l-16.068 15.338c57.042 66.157 91.782 152.945 91.782 247.847 0 210.161-170.369 380.531-380.531 380.531s-380.531-170.369-380.531-380.531c0-210.161 170.369-380.531 380.531-380.531 94.902 0 181.69 34.741 248.34 92.198l-0.493-0.416 15.338-16.068v-44.553l292.154-292.154 87.646 87.646zM379.8 315.8c-145.217 0-262.939 117.722-262.939 262.939s117.722 262.939 262.939 262.939c145.217 0 262.939-117.722 262.939-262.939v0c0-145.217-117.722-262.939-262.939-262.939v0z" />
<glyph unicode="&#xe934;" glyph-name="sort" d="M1024 117.12h-341.12v113.92h341.12zM1024 800v-113.92h-1024v113.92zM1024 401.92h-682.88v113.92h682.88z" />
<glyph unicode="&#xe935;" glyph-name="subscribe-notifications" d="M512-38.059c56.554 0 102.4 45.846 102.4 102.4v0h-204.8c0-56.554 45.846-102.4 102.4-102.4v0zM819.2 269.141v256c0.502 6.63 0.788 14.36 0.788 22.156 0 143.692-97.144 264.695-229.34 300.916l-2.189 0.511v34.816c0 42.227-34.232 76.459-76.459 76.459s-76.459-34.232-76.459-76.459v0-34.816c-134.385-36.732-231.529-157.735-231.529-301.428 0-7.797 0.286-15.526 0.848-23.18l-0.060 1.023v-256l-102.4-102.4v-51.2h819.2v51.2zM716.8 217.941h-409.6v307.2c-0.7 6.431-1.1 13.89-1.1 21.443 0 108.682 82.727 198.043 188.646 208.546l0.87 0.070h16.384c113.619-2.268 204.856-94.908 204.856-208.857 0-1.694-0.020-3.383-0.060-5.068l0.005 0.25c0.169-2.45 0.266-5.31 0.266-8.192s-0.097-5.742-0.287-8.576l0.021 0.384z" />
<glyph unicode="&#xe936;" glyph-name="subscribed-notifications" d="M277.163 852.139l-72.363 73.728c-120.060-92.264-198.415-233.662-204.768-393.577l-0.032-1.004h99.669c7.725 132.572 75.464 247.87 176.217 319.985l1.276 0.868zM895.659 531.285h100.352c-7.335 159.861-85.475 300.090-203.571 390.942l-1.229 0.909-68.267-68.267c101.473-73.362 168.841-188.497 176.754-319.67l0.057-1.183zM797.355 506.027c0.535 6.754 0.839 14.624 0.839 22.566 0 139.914-94.587 257.737-223.305 293.011l-2.132 0.498v35.499c-3.771 38.28-35.797 67.942-74.752 67.942s-70.981-29.661-74.727-67.631l-0.025-0.311v-34.133c-131.199-35.251-226.198-153.124-226.198-293.185 0-8.296 0.333-16.514 0.987-24.642l-0.069 1.070v-249.856l-99.669-99.669v-50.517h798.72v50.517l-99.669 99.669zM497.664-40.107h20.48c32.423 7.080 58.586 28.971 71.425 58.063l0.255 0.646c4.644 11.524 7.39 24.88 7.509 38.864v0.048h-200.021c0-55.423 44.929-100.352 100.352-100.352v0z" />
<glyph unicode="&#xe937;" glyph-name="subscription" d="M970.24 119.68v-53.76c0-59.735-48.425-108.16-108.16-108.16v0h-754.56c-59.459 0.363-107.52 48.648-107.52 108.158 0 0.001 0 0.001 0 0.002v0 754.56c0 59.382 48.138 107.52 107.52 107.52v0h754.56c0.001 0 0.001 0 0.002 0 59.51 0 107.795-48.061 108.158-107.485v-54.435h-485.12c-59.382 0-107.52-48.138-107.52-107.52v0 0-434.56c0-59.382 48.138-107.52 107.52-107.52v0h485.12zM485.12 224h538.88v434.56h-538.88zM704 362.24c-44.536 0-80.64 36.104-80.64 80.64s36.104 80.64 80.64 80.64c44.536 0 80.64-36.104 80.64-80.64v0c0-44.536-36.104-80.64-80.64-80.64v0z" />
<glyph unicode="&#xe938;" glyph-name="upload" d="M331.294 176.941h361.412v361.412h240.941l-421.647 421.647-421.647-421.647h240.941zM90.353 56.471h843.294v-120.471h-843.294z" />
<glyph unicode="&#xe939;" glyph-name="view-password" d="M512 800c-231.289-0.254-429.183-142.964-510.682-345.099l-1.318-3.701c82.306-206.359 280.433-349.53 512-349.53s429.694 143.171 510.692 345.823l1.308 3.707c-82.817 205.836-280.711 348.546-511.968 348.8h-0.032zM512 218.24c-128.66 0-232.96 104.3-232.96 232.96s104.3 232.96 232.96 232.96c128.66 0 232.96-104.3 232.96-232.96v0 0c-0.363-128.514-104.446-232.597-232.925-232.96h-0.035zM512 590.72c-0.19 0.001-0.414 0.001-0.639 0.001-77.408 0-140.16-62.752-140.16-140.16s62.752-140.16 140.16-140.16c77.408 0 140.16 62.752 140.16 140.16 0 0.225-0.001 0.449-0.002 0.673v-0.035c0 77.055-62.465 139.52-139.52 139.52v0z" />
</font>
</defs>
</svg>
